<?xml version="1.0" standalone="no"?>
<!DOCTYPE svg PUBLIC "-//W3C//DTD SVG 20010904//EN"
 "http://www.w3.org/TR/2001/REC-SVG-20010904/DTD/svg10.dtd">
<svg version="1.0" xmlns="http://www.w3.org/2000/svg"
 width="28.000000pt" height="28.000000pt" viewBox="0 0 28.000000 28.000000"
 preserveAspectRatio="xMidYMid meet">

<g transform="translate(0.000000,28.000000) scale(0.100000,-0.100000)"
fill="#000000" stroke="none">
<path d="M22 257 c-19 -21 -22 -35 -22 -118 0 -87 2 -97 23 -117 21 -19 35
-22 118 -22 87 0 97 2 117 23 19 21 22 35 22 118 0 87 -2 97 -23 117 -21 19
-35 22 -118 22 -87 0 -97 -2 -117 -23z m148 -62 c26 -13 30 -21 30 -55 0 -34
-4 -42 -31 -56 -25 -12 -34 -13 -43 -3 -8 9 -8 10 1 5 6 -3 23 -1 37 5 21 10
26 19 26 49 0 30 -5 39 -26 49 -14 6 -30 8 -36 5 -7 -4 -8 -2 -4 4 9 15 11 15
46 -3z m-5 -55 c0 -17 -6 -25 -20 -27 -16 -1 -16 -1 -2 3 9 3 17 14 17 24 0
10 -8 21 -17 24 -14 4 -14 4 2 3 14 -2 20 -10 20 -27z m-48 -12 c-3 -7 -5 -2
-5 12 0 14 2 19 5 13 2 -7 2 -19 0 -25z"/>
</g>
</svg>
